<svg xmlns="http://www.w3.org/2000/svg">

  <!-- recycle -->
  <symbol id="recycle" viewBox="0 0 24 24">
    <g>
      <path d="M7.356,1.482c0,0,1.762-0.865,3.229,1.677c1.026,1.777,2.991,5.181,2.991,5.181l5.196-3c0,0-1-1.732-1.75-3.031
        s-1.906-1.301-1.906-1.301l-5.234,0C7.934,0.928,7.356,1.482,7.356,1.482z" />
      <path d="M9.72,3.659c-0.88-1.525-1.761-1.617-2.131-1.629C7.218,2.017,6.7,2.207,6.309,2.885S4.123,6.67,4.123,6.67l5.196,3
        l1.936-3.353L9.72,3.659z" />
      <path d="M12.318,8.919l5.357,0.519l2.232-4.894c0.099-0.177-0.099-0.372-0.275-0.271l-7.411,4.272
        C12.046,8.647,12.115,8.916,12.318,8.919z" />
    </g>
    <g>
      <path d="M23.55,14.042c0,0-0.132,1.958-3.067,1.958c-2.052,0-5.983,0-5.983,0v6c0,0,2,0,3.5,0s2.08-1,2.08-1l2.617-4.532
        C23.74,14.819,23.55,14.042,23.55,14.042z" />
      <path d="M20.483,15c1.761,0,2.281-0.716,2.477-1.031c0.196-0.315,0.29-0.858-0.101-1.536C22.468,11.756,20.5,8.349,20.5,8.349
        l-5.196,3L17.412,15H20.483z" />
      <path d="M14.628,14.62L11.5,19l3.122,4.38c0.104,0.174,0.371,0.1,0.372-0.103L15,14.723C15,14.52,14.732,14.446,14.628,14.62z" />
    </g>
    <g>
      <path d="M4.921,21.785c0,0-1.63-1.094-0.163-3.635c1.026-1.777,2.819-5.48,2.819-5.48l-5.196-3c0,0-1,1.732-1.75,3.031
        s-0.001,2.6-0.001,2.6l2.617,4.532C4.152,21.562,4.921,21.785,4.921,21.785z" />
      <path d="M5.625,18.65c-0.88,1.525-0.52,2.333-0.345,2.66c0.175,0.327,0.598,0.681,1.38,0.681s4.371,0,4.371,0l0-6l-3.871,0
        L5.625,18.65z" />
      <path d="M8.708,13.471L6.479,8.572L1.125,9.086C0.922,9.089,0.852,9.358,1.028,9.459l7.406,4.282
        C8.609,13.843,8.807,13.648,8.708,13.471z" />
    </g>
  </symbol>

  <!-- compost -->
  <symbol id="compost" viewBox="0 0 24 24">
    <path d="M19,8H5v0c0-1.105,0.895-2,2-2h10C18.105,6,19,6.895,19,8L19,8z" />
    <path d="M14,5.008h-4c-1.105,0-2,0.895-2,2h8C16,5.903,15.105,5.008,14,5.008z" />
    <path d="M5.74,9l0.748,12.25c0,0.966,0.28,1.75,1.246,1.75h8.532c0.966,0,1.246-0.784,1.246-1.75L18.26,9H5.74z" />
  </symbol>

  <!-- garbage -->
  <symbol id="garbage" viewBox="0 0 24 24">
    <path d="M18,12H6c-0.552,0-1-0.448-1-1V4h14v7C19,11.552,18.552,12,18,12z" />
    <path d="M20,3H4v0c0-1.105,0.716-2,1.6-2h12.8C19.284,1,20,1.895,20,3L20,3z" />
    <path d="M4.75,23L4.75,23C4.336,23,4,22.664,4,22.25v-4.5C4,17.336,4.336,17,4.75,17h0c0.414,0,0.75,0.336,0.75,0.75v4.5
      C5.5,22.664,5.164,23,4.75,23z" />
    <path d="M19.25,23L19.25,23c-0.414,0-0.75-0.336-0.75-0.75v-4.5c0-0.414,0.336-0.75,0.75-0.75l0,0c0.414,0,0.75,0.336,0.75,0.75
      v4.5C20,22.664,19.664,23,19.25,23z" />
    <path d="M15.994,2C15.964,0.922,15.085,0.057,14,0.057h-4C8.915,0.057,8.036,0.922,8.006,2H15.994z" />
    <path d="M16,6H8C6.895,6,6,6.895,6,8v13c0,1.105,0.895,2,2,2h0.55l0.953-9.053C9.529,13.693,9.744,13.5,10,13.5h4
      c0.256,0,0.471,0.193,0.497,0.447L15.45,23H16c1.105,0,2-0.895,2-2V8C18,6.895,17.105,6,16,6z" />
    <polygon points="14.339,22 13.55,14.5 10.45,14.5 9.661,22   " />
  </symbol>

  <!-- yard_waste -->
  <symbol id="yard_waste" viewBox="0 0 24 24">
    <path d="M18,3l-2,1l-2-1l-2,1l-2-1L8,4L6,3L5,3.5L6,17l-1,4c0,1.105,0.895,2,2,2h10c1.105,0,2-0.895,2-2l-1-4l1-13.5L18,3z
       M14.798,16.75c-1.626,1.626-3.981,1.951-5.525,0.855C8.658,18.222,7.951,19.5,7.951,19.5L7,19.246
      c1.938-2.761,3.378-4.328,6.203-6.349C13.203,12.897,9.5,14,8,16c-0.5-1.5-0.178-3.17,1.35-4.698c0.99-0.99,2.68-1.247,4.504-1.404
      C15.789,9.732,17,9.1,17,9.1S16.582,14.966,14.798,16.75z" />
  </symbol>

  <!-- christmas_tree -->
  <symbol id="christmas_tree" viewBox="0 0 24 24">
    <path d="M20.377,21.378C18.194,19.461,17.085,17.594,15.5,15h2.711c0.12,0,0.222-0.062,0.267-0.161
      c0.045-0.1,0.02-0.208-0.065-0.283C16.683,13.037,15.69,10.128,14.5,8h1.801c0.082,0,0.153-0.042,0.184-0.111
      c0.031-0.068,0.014-0.143-0.045-0.195c-1.831-1.608-3.412-4.83-4.249-7.564C12.167,0.053,12.09,0,12,0
      c-0.09,0-0.167,0.053-0.191,0.131C10.972,2.864,9.392,6.086,7.56,7.695C7.501,7.746,7.484,7.821,7.515,7.889
      C7.547,7.958,7.617,8,7.699,8H9.5c-1.191,2.128-2.183,5.037-3.912,6.556c-0.086,0.075-0.111,0.183-0.066,0.283
      C5.567,14.938,5.669,15,5.789,15H8.5c-1.585,2.594-2.694,4.461-4.877,6.378c-0.12,0.105-0.155,0.257-0.092,0.396
      C3.594,21.914,3.737,22,3.905,22H11v1h2v-1h7.095c0.168,0,0.31-0.086,0.374-0.226C20.532,21.635,20.497,21.483,20.377,21.378z" />
  </symbol>

  <symbol id="mr_green" viewBox="0 0 13 14">
    <circle class="cls-1" cx="6.5" cy="7.75" r="6.47" />
    <path class="cls-2" d="M3.23,11.06a3.11,3.11,0,0,1-.43,0l-.17,0h-.1a.75.75,0,0,1-.26,0C2,11,2,10.68,2,10.68l-.39-1a3.28,3.28,0,0,1-.05-1.83,1.5,1.5,0,0,1,.35-.62A.82.82,0,0,1,2.11,7L2.37,7,2.05,7a1,1,0,0,0-.38.21A1.54,1.54,0,0,1,2,6.34,1.65,1.65,0,0,1,3.28,5.7h.05l0,0A3,3,0,0,1,5,4.93a.58.58,0,0,0,.15.35,1.6,1.6,0,0,0,1.24.4,1.91,1.91,0,0,0,1.34-.42A.88.88,0,0,0,8,4.9a3.24,3.24,0,0,1,1.83.73h0a2.15,2.15,0,0,1,1.26.77,1.79,1.79,0,0,1,.28,1A1,1,0,0,0,11,7.18l-.18-.06.15.12a1.77,1.77,0,0,1,.41.41l.06.11a2.64,2.64,0,0,1,.22.92,2,2,0,0,1-.62,1.6,1.24,1.24,0,0,1,0-.43,2,2,0,0,0-.27.69.41.41,0,0,1-.38.23.57.57,0,0,1-.22,0h0a1.54,1.54,0,0,0-.3,0h0A3.64,3.64,0,0,1,8.32,11H8.09a5.11,5.11,0,0,1-1.85-.51c.29-.14.57-.3.85-.47a5.91,5.91,0,0,0,1.3-1.34,2.91,2.91,0,0,1,1.12-.23l.31,0,.22,0-.21-.09a1.28,1.28,0,0,0-.55-.09,4.92,4.92,0,0,1,.07-1.47l.06-.26-.13.23A1.22,1.22,0,0,0,9.21,7,1.51,1.51,0,0,0,9,6.79l-.18-.11a.61.61,0,0,1,.12.16,1.25,1.25,0,0,1,.2.4,3.1,3.1,0,0,0-.06,1A.35.35,0,0,1,9,8.21a.34.34,0,0,0-.14-.15s0,0,0,0A.18.18,0,0,0,8.76,8a.24.24,0,0,1-.09-.08.48.48,0,0,0-.3-.18h0a1.84,1.84,0,0,0-3.67.07,1.5,1.5,0,0,0,0,.37H4.37l-.45,0a2.05,2.05,0,0,0,0-.74A1.89,1.89,0,0,1,4,7c0-.09.12-.31.12-.31A1,1,0,0,0,4,6.86c-.05.07-.12.19-.16.26L3.78,6.9a1.18,1.18,0,0,0-.14-.22s0,.17.08.25a2.3,2.3,0,0,1,0,1.27A1.53,1.53,0,0,0,3,8.49l0,.06a2.64,2.64,0,0,1,1.25-.26,4.87,4.87,0,0,1,.76.06h0l.25.05h0a4,4,0,0,0,1.34-.29,2.71,2.71,0,0,1,.93-.23,1.85,1.85,0,0,1,.63.73A5.84,5.84,0,0,1,7,9.89,7.6,7.6,0,0,1,4.2,11,5.23,5.23,0,0,1,3.23,11.06Z" />
    <path class="cls-2" d="M8.66,13.5l-.2.07-.07,0-.16.05-.1,0-.15,0-.12,0-.13,0-.14,0H7.48l-.15,0H7.21l-.15,0H5.94l-.18,0h0a6.2,6.2,0,0,1-1.22-.29,12.81,12.81,0,0,0-.38-2.4l.1,0A7.42,7.42,0,0,0,6,10.58a5.12,5.12,0,0,0,2,.6,4.13,4.13,0,0,0,1-.07,11.19,11.19,0,0,0-.45,2.39Z" />
    <path class="cls-3" d="M5.81,4.93c0,.08.05.39.07.47V4.93h.06a2.63,2.63,0,0,0,.49,0,1.42,1.42,0,0,0,1.09-1,2,2,0,0,0-.39-1.91,2.32,2.32,0,0,1,.3,1.89,1.3,1.3,0,0,1-1,1,2.11,2.11,0,0,1-1.63-.3A1.83,1.83,0,0,1,4.33,4a3.45,3.45,0,0,0,.9-2.29V1.58a1,1,0,0,1,.59,0s0,0,0,.06a.6.6,0,0,0-.52,0v.09a.64.64,0,0,1,.26-.1.06.06,0,0,0,0,.06.07.07,0,0,0,.07.07.07.07,0,0,0,0-.14.39.39,0,0,1,.18,0l0,.18a.79.79,0,0,1-.22.71l0,0,0,0A.71.71,0,0,0,6,2.76h.09a.58.58,0,0,0,.43-.3s-.41.36-.78.14a.92.92,0,0,0,.15-.76.78.78,0,0,1,0-.4l0,0a1,1,0,0,0-.62,0,1.49,1.49,0,0,1,0-.36h.4a.24.24,0,0,1,.23.17A.65.65,0,0,1,6.54.91a.9.9,0,0,1,.63.21.94.94,0,0,0,.2.9.79.79,0,0,1,.11-.43s.13-.11.2,0a.38.38,0,0,1,0,.44.26.26,0,0,1-.24.07l0,0A19.53,19.53,0,0,1,7.8,4.85a1.15,1.15,0,0,1-.2.29,1.67,1.67,0,0,1-1.22.37,1.43,1.43,0,0,1-1.12-.34.43.43,0,0,1-.12-.31V4.81A2.48,2.48,0,0,0,5.81,4.93Z" />
    <path class="cls-1" d="M5.21,2.67l0,.09.12.06-.18.39.14.06a2.15,2.15,0,0,1-.14.26A.4.4,0,0,1,5,3.43l-.05.08a1.31,1.31,0,0,0,.84.3,1.34,1.34,0,0,0,.4-.06,1,1,0,0,0,.74-.93.47.47,0,0,0,.15-.06V2.68A2,2,0,0,1,5.21,2.67Z" />
    <path d="M5.21,2.67l0,.09.12.06-.18.39.14.06a2.15,2.15,0,0,1-.14.26A.4.4,0,0,1,5,3.43l-.05.08a1.31,1.31,0,0,0,.84.3,1.34,1.34,0,0,0,.4-.06,1,1,0,0,0,.74-.93.47.47,0,0,0,.15-.06V2.68A2,2,0,0,1,5.21,2.67Zm.94,1a1.28,1.28,0,0,1-.94-.09,3.16,3.16,0,0,0,.16-.31l0,0-.14-.06.14-.31A2.16,2.16,0,0,0,6.1,3a2,2,0,0,0,.75-.13A1,1,0,0,1,6.15,3.66Z" />
    <path d="M7,1.56l0-.19a.91.91,0,0,0-.77,0v.14A1.3,1.3,0,0,1,7,1.56Z" />
    <path d="M7.6,1.8a.21.21,0,0,1,0,.06v.07a.24.24,0,0,0,.09-.18.24.24,0,0,0-.06-.11s0,.06,0,.09a.24.24,0,0,0-.15,0A.25.25,0,0,1,7.6,1.8Z" />
    <path d="M5.05,3.89a2.26,2.26,0,0,1,1,.38l0-.12A1.36,1.36,0,0,0,5.05,3.89Z" />
    <path d="M6.64,1.71a.06.06,0,0,0,0-.06.88.88,0,0,1,.28.06V1.64a.63.63,0,0,0-.61,0v.05a.51.51,0,0,1,.24,0,.06.06,0,0,0,0,.06.06.06,0,0,0,.06.06h0a.06.06,0,0,0,.08-.06Zm-.08,0s0,0,0,0a0,0,0,0,1,0,0s0,0,0,0h0l0,0Z" />
    <path d="M11.1,3.15A6.5,6.5,0,0,0,7.92,1.4c0,.06,0,.12,0,.18a.41.41,0,0,1,0,.19A6.14,6.14,0,0,1,9.28,13.23h0L9,13.35l-.18.09a9.68,9.68,0,0,1,.44-2.36,3.33,3.33,0,0,0,.63-.21.78.78,0,0,1,.26,0,.75.75,0,0,0,.26,0,.57.57,0,0,0,.53-.32.44.44,0,0,1,.08-.11,2.15,2.15,0,0,0,.79-1.83,2.78,2.78,0,0,0-.21-.93h0l0,0,0-.08,0,0v0a1.89,1.89,0,0,0-.3-1.24A2.29,2.29,0,0,0,9.89,5.5a3.34,3.34,0,0,0-2-.75h0c-.08-1.11-.19-1.93-.26-2.35.16.12.24-.09.24-.09-.16,0-.18-.15-.18-.22l0,0a.5.5,0,0,0,.07-.46,1.81,1.81,0,0,1,.09-.31C8,1.16,8,.72,7.59.74c0,0,.09-.72-.94-.74A1.67,1.67,0,0,0,5.44.56a.33.33,0,0,1-.31.1A.2.2,0,0,1,5,.42.2.2,0,0,1,5.18.29c.09,0,.15.16.05.2s-.09-.1-.09-.1,0,.24.16.16A.22.22,0,0,0,5.11.18.41.41,0,0,0,4.8.63s0,.27.44.39a2.63,2.63,0,0,0-.06.39l-.11,0,0,.18.07,0v.17A3.41,3.41,0,0,1,4.25,4l0,0,0,0a1.58,1.58,0,0,0,.5.53,2.33,2.33,0,0,0,.34.2h0a2.89,2.89,0,0,0-1.79.76,1.8,1.8,0,0,0-1.43.71,1.64,1.64,0,0,0-.32,1.15.93.93,0,0,0-.05.1.16.16,0,0,0,0,.09,3,3,0,0,0,0,2.11l.39,1s.13.37.44.43a1.58,1.58,0,0,0,.31,0,.55.55,0,0,1,.22,0,3.59,3.59,0,0,0,.47,0A5.81,5.81,0,0,0,4,11.17a12.05,12.05,0,0,1,.38,2.33l0,0h0A6.14,6.14,0,0,1,5.1,1.77h0V1.71l0,0L5,1.42A6.51,6.51,0,0,0,6.06,14.25H6.8a6.5,6.5,0,0,0,4.3-11.1ZM6.79.41A.75.75,0,0,1,7.4.82.44.44,0,0,0,7.28,1a1,1,0,0,0-.64-.4,1,1,0,0,1,.67.28A.78.78,0,0,0,6.79.41Zm-1,4.52c0,.08.05.39.07.47V4.93h.06a2.63,2.63,0,0,0,.49,0,1.42,1.42,0,0,0,1.09-1,2,2,0,0,0-.39-1.91,2.32,2.32,0,0,1,.3,1.89,1.3,1.3,0,0,1-1,1,2.11,2.11,0,0,1-1.63-.3A1.83,1.83,0,0,1,4.33,4a3.45,3.45,0,0,0,.9-2.29V1.58a1,1,0,0,1,.59,0s0,0,0,.06a.6.6,0,0,0-.52,0v.09a.64.64,0,0,1,.26-.1.06.06,0,0,0,0,.06.07.07,0,0,0,.07.07.07.07,0,0,0,0-.14.39.39,0,0,1,.18,0l0,.18a.79.79,0,0,1-.22.71l0,0,0,0A.71.71,0,0,0,6,2.76h.09a.58.58,0,0,0,.43-.3s-.41.36-.78.14a.92.92,0,0,0,.15-.76.78.78,0,0,1,0-.4l0,0a1,1,0,0,0-.62,0,1.49,1.49,0,0,1,0-.36h.4a.25.25,0,0,1,.23.17A.65.65,0,0,1,6.54.91a.87.87,0,0,1,.63.22.92.92,0,0,0,.2.89.79.79,0,0,1,.11-.43s.13-.11.2,0a.38.38,0,0,1,0,.44.24.24,0,0,1-.24.07l0,0A19.53,19.53,0,0,1,7.8,4.85a1,1,0,0,1-.2.29,1.68,1.68,0,0,1-1.23.37,1.42,1.42,0,0,1-1.11-.34.43.43,0,0,1-.12-.31V4.81A2.48,2.48,0,0,0,5.81,4.93ZM5.6,1.69s0,0,0,0a0,0,0,0,1,0,0s0,0,0,0S5.6,1.68,5.6,1.69ZM3.23,11.06a3.11,3.11,0,0,1-.43,0l-.17,0h-.1a.75.75,0,0,1-.26,0C2,11,2,10.68,2,10.68l-.39-1a3.28,3.28,0,0,1-.05-1.83,1.5,1.5,0,0,1,.35-.62A.82.82,0,0,1,2.11,7L2.37,7,2.05,7a1,1,0,0,0-.38.21A1.51,1.51,0,0,1,2,6.34a1.67,1.67,0,0,1,1.32-.65h.05l0,0A3,3,0,0,1,5,4.93a.58.58,0,0,0,.15.35,1.6,1.6,0,0,0,1.24.4,1.91,1.91,0,0,0,1.34-.42A.88.88,0,0,0,8,4.9a3.24,3.24,0,0,1,1.83.73h0a2.15,2.15,0,0,1,1.26.77,1.79,1.79,0,0,1,.28,1A1.18,1.18,0,0,0,11,7.17l-.18,0,.15.12a1.77,1.77,0,0,1,.41.41l.06.11a2.64,2.64,0,0,1,.22.92,2,2,0,0,1-.62,1.6,1.24,1.24,0,0,1,0-.43,2,2,0,0,0-.27.69.41.41,0,0,1-.38.23.85.85,0,0,1-.22,0h0a1.54,1.54,0,0,0-.3,0h0A3.64,3.64,0,0,1,8.32,11H8.09a5.11,5.11,0,0,1-1.85-.51c.29-.14.57-.3.85-.47a5.91,5.91,0,0,0,1.3-1.34,2.91,2.91,0,0,1,1.12-.23l.31,0,.22,0-.21-.09a1.28,1.28,0,0,0-.55-.09,4.92,4.92,0,0,1,.07-1.47l.06-.26-.13.23A1.22,1.22,0,0,0,9.21,7,1.51,1.51,0,0,0,9,6.79l-.18-.11a.61.61,0,0,1,.12.16,1.25,1.25,0,0,1,.2.4,3.1,3.1,0,0,0-.06,1A.35.35,0,0,1,9,8.21a.34.34,0,0,0-.14-.15s0,0,0,0A.18.18,0,0,0,8.76,8a.24.24,0,0,1-.09-.08.48.48,0,0,0-.3-.18h0a1.84,1.84,0,0,0-3.67.07,1.5,1.5,0,0,0,0,.37H4.37l-.45,0a2.05,2.05,0,0,0,0-.74A1.89,1.89,0,0,1,4,7c0-.09.12-.31.12-.31A1,1,0,0,0,4,6.86l-.16.25L3.78,6.9a1.18,1.18,0,0,0-.14-.22s0,.17.08.25a2.27,2.27,0,0,1,0,1.26,1.67,1.67,0,0,0-.68.3l0,.06a2.64,2.64,0,0,1,1.25-.26,4.87,4.87,0,0,1,.76.06h0l.25.05h0a4,4,0,0,0,1.34-.29,2.71,2.71,0,0,1,.93-.23,1.85,1.85,0,0,1,.63.73A5.84,5.84,0,0,1,7,9.89,7.6,7.6,0,0,1,4.2,11,5.23,5.23,0,0,1,3.23,11.06ZM6.51,6.25A1.52,1.52,0,0,0,4.94,7.76,1.54,1.54,0,0,0,5,8.19l-.23,0a1.55,1.55,0,0,1,0-.37A1.75,1.75,0,0,1,8.22,7.7H8.11l-.3,0V7.49H6.52V8a3.2,3.2,0,0,1-.69.19,1,1,0,0,1-.09-.42A.74.74,0,0,1,6.49,7a.79.79,0,0,1,.65.31l.55-.47a1.39,1.39,0,0,0-1.18-.55Zm2.15,7.26-.2.06-.07,0-.16.05-.1,0-.15,0-.12,0-.13,0-.14,0H7.48l-.15,0H7.21l-.15,0H5.94l-.18,0h0a6.2,6.2,0,0,1-1.22-.29,12.81,12.81,0,0,0-.38-2.4l.1,0A7.42,7.42,0,0,0,6,10.58a5,5,0,0,0,2,.6,4.13,4.13,0,0,0,1-.07,11.19,11.19,0,0,0-.45,2.39Z" />
    <path class="cls-1" d="M6.79.41A.75.75,0,0,1,7.4.82.44.44,0,0,0,7.28,1a1,1,0,0,0-.64-.4,1,1,0,0,1,.67.28A.78.78,0,0,0,6.79.41Z" />
    <path class="cls-3" d="M8.33,7.83A.37.37,0,0,1,8.55,8a.33.33,0,0,0,.14.12,0,0,0,0,1,0,0l.07.06a.32.32,0,0,1,.1.1l.08.1a2.29,2.29,0,0,0-.63.19,2.22,2.22,0,0,0-.6-.73Z" />
  </symbol>
</svg>
